    <svg id="Belly" xmlns="http://www.w3.org/2000/svg" viewBox="0 0 124.07 188.38">
      <defs>

      </defs>

      <path class="cls-1"
        d="M341.3,388.53c-.87,1-1.79,2-2.75,2.94a9.1,9.1,0,0,0-1.56-5.33c-.28-.4-1.67-4-5.64-3.35-3.15.5-4,3.92-4.52,6.81-.7,4.15-.37,5.09-1.45,8.59a4.33,4.33,0,0,1-.21.54c-.06.12-.12.24-.19.36l0,.07-.14.2c-.08.12-.16.23-.25.34a5.14,5.14,0,0,1-.38.42l0,0-.43.4,0,0-.43.33a10.33,10.33,0,0,1-1,.63c-.17.1-.33.19-.5.27-.39.2-.78.37-1.13.52l-.51.2c-.5.18-.92.31-1.19.4h0l-.11,0-.09,0-.11,0c-5.16,2-5.07,1.84-7.12,3.56a42.48,42.48,0,0,1-11.3,1c-17.29-.92-35.21-13.49-39.14-26.09a15.76,15.76,0,0,1-.69-6.59,13.72,13.72,0,0,1,1.38-4.56,20.35,20.35,0,0,1,4.57-5.86,22.46,22.46,0,0,0,3,2.95q.54.45,1.11.87c.5.38,1,.73,1.54,1.07.26.17.52.34.79.5l.18.11c.34.21.69.41,1,.6.8.45,1.62.86,2.45,1.24.38.18.75.35,1.13.51l.89.37.81.32c.56.22,1.13.43,1.7.62.33.12.65.23,1,.33l1.16.36c.76.24,1.52.45,2.27.64.41.12.81.22,1.21.31s.87.21,1.31.3c.61.14,1.22.26,1.81.38l1.74.32.65.11c1.51.24,2.88.42,4.06.56l.67.07.4,0,.55.05.68.06h.14l.8.06.59,0,.24,0c.48,0,2.1.07,4.51,0l.62,0,.42,0,.89-.07c1.88-.14,4.08-.39,6.48-.8l1.24-.23c.72-.14,1.45-.29,2.2-.46,1.25-.28,2.54-.61,3.85-1l.79-.24c1.07-.32,2.15-.69,3.24-1.1.53-.19,1.05-.4,1.58-.61s1.08-.45,1.62-.69,1.09-.49,1.63-.76l.8-.4c.54-.28,1.08-.56,1.62-.86l.31-.17h0a25,25,0,0,0,5.88-2.89,17.78,17.78,0,0,0,6.1-6.94h0c.58-.67,1.13-1.37,1.67-2.1a16.22,16.22,0,0,1,4.22,7.52C351.49,372.28,347.92,380.89,341.3,388.53Z"
        transform="translate(-231.58 -226.7)" />
    
      <path class="cls-3"
        d="M338.54,309.52a34.42,34.42,0,0,1-5.7,7.54,23.64,23.64,0,0,0-.78-4.91c-.53-2-2.71-10-9.38-12.32-.5-.17-6.05-2-9.13,1.08-2.43,2.46-2.18,6.87-.76,9.71,2,4.08,5.85,3.65,7.15,7.4s-1.16,7.47-1.37,7.79c-3,4.62-8.61,4.48-10.93,6.54-3.5,1.16-11.44,3.5-19.42,3.46-5.53,0-11.09-1.2-15.2-4.7a15.39,15.39,0,0,1-1.85-1.85,16.21,16.21,0,0,1-2.63-4.32A25,25,0,0,1,267,313.19a40,40,0,0,1,.58-4c1.5.11,3,.14,4.37.11l.76,0h0l1-.05a50.21,50.21,0,0,0,9.05-1.42l1.09-.29c.37-.09.73-.2,1.09-.31.69-.2,1.34-.4,2-.61l1.05-.36.78-.28.13-.05.86-.32h0c1.31-.49,2.44-1,3.36-1.37,6-2.56,24.81-10.67,25.53-23.49a15.63,15.63,0,0,0-.22-3.45,28.52,28.52,0,0,1,12,4.22c1,.63,9.72,6.56,10.73,16.34A19.93,19.93,0,0,1,338.54,309.52Z"
        transform="translate(-231.58 -226.7)" />


        <g id="head" >
          <path class="cls-4" d="M289.72,350.09v0c-.81.31-1.64.6-2.47.92Z" transform="translate(-231.58 -226.7)" />
          <path class="cls-4"
            d="M217.21,152.31a53.6,53.6,0,0,1,16.2-16.13,64.45,64.45,0,0,1,8-4.45,85.52,85.52,0,0,1,8.14-3c.37-.12.81-.26,1.24-.37a70.74,70.74,0,0,1,7.71-1.85h.05c2.94-.51,14-2.73,25.74-1.49a49.23,49.23,0,0,1,12.11,2.73,31.88,31.88,0,0,1,10.36,6.24c12.42,11.48,7,26.41,27.18,60.95,5.66,9.72,5.89,8.2,12.48,19.1,6.33,10.47,12.4,20.5,17.08,30,4.26,8.57,7.43,16.8,8.72,24.62a45.47,45.47,0,0,1,.63,9.93c-2.07,36.87-56.28,60.19-73.43,67.56-2.64,1.15-5.89,2.53-9.66,3.94l-2.47,1c-.15,0-.26.11-.38.14-.75.26-1.49.52-2.24.81-1,.34-2,.69-3,1-1.81.61-3.68,1.18-5.67,1.76-1,.31-2.07.63-3.13.89s-2.07.57-3.14.83a144.49,144.49,0,0,1-26,4.09c-.95.05-1.92.11-2.9.14h0l-2.19.09c-4.05.08-8.25,0-12.57-.32a128.65,128.65,0,0,1-21.31-3.34C194,354.58,134.58,335.28,129,299.9c-2.46-15.56,6.54-27.6,21.31-48.46C166.83,228.1,189.76,194.88,217.21,152.31Z"
            transform="translate(-231.58 -226.7)" />
          </g>
      <path class="cls-4"
        d="M318.66,280.74c-.72,12.82-19.57,20.93-25.53,23.49-.92.4-2.05.88-3.36,1.37l-.86.33-.13.05-.78.28-1.05.36c-.63.21-1.28.41-2,.61-.36.11-.72.22-1.09.31l-1.09.29a50.21,50.21,0,0,1-9.05,1.42l-1,.05h0l-.76,0c-1.41,0-2.87,0-4.37-.11a44.88,44.88,0,0,1-7.41-1.16c-1.1-.26-25-6.35-26.3-19.91-.36-3.71,2-5.69,7.41-16.85,10.38-21.53,21.31-33.16,21.51-33a16.24,16.24,0,0,1,3.58-4.3,25.9,25.9,0,0,1,6.57-4.31,25.57,25.57,0,0,1,2.83-1.06l.43-.13a24.93,24.93,0,0,1,2.68-.64h0a32.1,32.1,0,0,1,8.95-.52,17.21,17.21,0,0,1,4.21.95,11.07,11.07,0,0,1,3.6,2.17c4.32,4,2.45,9.18,9.45,21.19,2,3.38,2.05,2.85,4.34,6.64s4.31,7.13,5.94,10.45a31.18,31.18,0,0,1,3,8.56A15.63,15.63,0,0,1,318.66,280.74Z"
        transform="translate(-231.58 -226.7)" />
      
      <path class="cls-5"
        d="M338.55,391.47c0,3.95-2,7.68-2.5,8.87a23,23,0,0,1-5.71,8.69,17.87,17.87,0,0,1-9.07,4.55c-5.5,1-9.46,2.52-11.46-2.28-.81-1.95-.59-2.84,1-4.17l.66-.55c2.05-1.72,2-1.59,7.12-3.56l.11,0,.09,0,.11,0h0c.27-.09.69-.22,1.19-.4l.51-.2c.35-.15.74-.32,1.13-.52.17-.08.33-.17.5-.27a10.33,10.33,0,0,0,1-.63l.43-.33,0,0,.43-.4,0,0a5.14,5.14,0,0,0,.38-.42c.09-.11.17-.22.25-.34l.14-.2,0-.07c.07-.12.13-.24.19-.36a4.33,4.33,0,0,0,.21-.54c1.08-3.5.75-4.44,1.45-8.59.49-2.89,1.37-6.31,4.52-6.81,4-.64,5.36,2.95,5.64,3.35A9.1,9.1,0,0,1,338.55,391.47Z"
        transform="translate(-231.58 -226.7)" />

      <path class="cls-6"
        d="M268.54,324.94c-9.55-3.36-14.37-2.17-17-.11-3.3,2.55-3.78,6.82-9.53,10.21-.86.51-5.59,3.3-7.49,1.7-2.17-1.82.62-8.28,1-9.19,2.75-6.2,9.39-13.65,19.4-15.32a25.73,25.73,0,0,1,12.11,1A25,25,0,0,0,268.54,324.94Z"
        transform="translate(-231.58 -226.7)" />

      <path class="cls-7"
        d="M262.16,355.25c-5.84-1.28-9.46-.29-12.35.05s-5.62,2.52-9.87,4.59c-.47.23-5.71,2.39-7.15,0-1.92-3.16,5.58-11.09,14.3-15a28.7,28.7,0,0,1,16.48-2.09A24.69,24.69,0,0,0,262.16,355.25Z"
        transform="translate(-231.58 -226.7)" />

      <path class="cls-8"
        d="M261.05,381.46a17.21,17.21,0,0,0-9.2-.46,24,24,0,0,0-8.51,4.43c-5.12,3.84-6.25,7.2-8.17,6.8s-3.48-4.79-3.06-8.51c.81-7.26,8.75-12.58,15.32-14.29a24,24,0,0,1,14.31.88,13.72,13.72,0,0,0-1.38,4.56A15.76,15.76,0,0,0,261.05,381.46Z"
        transform="translate(-231.58 -226.7)" />

      <path class="cls-9"
        d="M327,334c-4.19,4.4-12.16,8.8-17,5.87-2-1.18-3.84-3.85-3.28-6a2.88,2.88,0,0,1,.94-1.5c2.32-2.06,7.93-1.92,10.93-6.54.21-.32,2.62-4.15,1.37-7.79s-5.11-3.32-7.15-7.4c-1.42-2.84-1.67-7.25.76-9.71,3.08-3.09,8.63-1.25,9.13-1.08,6.67,2.31,8.85,10.36,9.38,12.32a23.64,23.64,0,0,1,.78,4.91A22.7,22.7,0,0,1,327,334Z"
        transform="translate(-231.58 -226.7)" />

      <path class="cls-10"
        d="M347.51,355.13c-.59.94-1.2,1.83-1.84,2.69s-1.09,1.43-1.67,2.1a22.75,22.75,0,0,0,2.15-11.09c-.09-1.87.73-10-4.81-13.39-.42-.26-3.12-3-6.51-.82-2.68,1.72-3.34,5.59-2.64,8.42a46,46,0,0,1,1.38,8.43c.4,3.52-4.11,7.67-4.36,7.91-4.33,4.25-7.43.24-9,3.46-.94,1.86.21,4.63,1.73,6.09,2.39,2.29,6.35,2.09,10.1.84l-.31.17c-.54.3-1.08.58-1.62.86l-.8.4c-.54.27-1.09.52-1.63.76s-1.08.47-1.62.69-1.05.42-1.58.61c-1.09.41-2.17.78-3.24,1.1l-.79.24c-1.31.38-2.59.71-3.85,1-.75.17-1.48.32-2.2.46l-1.24.23c-2.4.41-4.6.66-6.48.8l-.89.07-.42,0-.62,0c-2.41.11-4,.06-4.51,0l-.24,0-.59,0-.8-.06h-.14l-.68-.06-.55-.05-.4,0-.67-.07c-1.18-.14-2.55-.32-4.06-.56l-.65-.11-1.74-.32c-.59-.12-1.2-.24-1.81-.38-.44-.09-.87-.2-1.31-.3l-1.21-.31c-.75-.19-1.51-.4-2.27-.64l-1.16-.36c-.33-.1-.65-.21-1-.33-.57-.19-1.14-.4-1.7-.62l-.81-.32-.89-.37c-.38-.16-.75-.33-1.13-.51-.83-.38-1.65-.79-2.45-1.24-.35-.19-.7-.39-1-.6l-.18-.11c-.27-.16-.53-.33-.79-.5-.52-.34-1-.69-1.54-1.07s-.75-.57-1.11-.87a22.46,22.46,0,0,1-3-2.95,18.67,18.67,0,0,1-3.57-6.6,19.88,19.88,0,0,1-.58-2.59h0a24.69,24.69,0,0,1,1.41-12.43,19.28,19.28,0,0,1,5.3-7.78c1.32-1.12,1.89-2.3,4.15-3.93,4.11,3.5,9.67,4.67,15.2,4.7,8,0,15.92-2.3,19.42-3.46a2.88,2.88,0,0,0-.94,1.5c-.56,2.19,1.32,4.86,3.28,6,4.82,2.93,12.79-1.47,17-5.87a22.7,22.7,0,0,0,5.88-17,34.42,34.42,0,0,0,5.7-7.54,26,26,0,0,1,13.4,10.54C360.59,334.34,349.16,352.51,347.51,355.13Z"
        transform="translate(-231.58 -226.7)" />

      <path class="cls-11"
        d="M344,359.92h0a17.78,17.78,0,0,1-6.1,6.94,25,25,0,0,1-5.88,2.89h0c-3.75,1.25-7.71,1.45-10.1-.84-1.52-1.46-2.67-4.23-1.73-6.09,1.62-3.22,4.72.79,9-3.46.25-.24,4.76-4.39,4.36-7.91a46,46,0,0,0-1.38-8.43c-.7-2.83,0-6.7,2.64-8.42,3.39-2.17,6.09.56,6.51.82,5.54,3.41,4.72,11.52,4.81,13.39A22.75,22.75,0,0,1,344,359.92Z"
        transform="translate(-231.58 -226.7)" />

      <path class="cls-12"
        d="M286.87,277.92a9.72,9.72,0,0,1-6.83,6.9c-5.68,1.54-24.16-.47-30.17-4l-6-3.56h0l-.77,4.72-.51,1.38a6.55,6.55,0,0,1,2.69,1.92c1,1.32.63,1.64.63,1.64s7.2,3.29,7.19,4.35v1s7.33,1.09,8,2.45.44,1.41.44,1.41,6-.51,6.81,1.07,1.08,1.3,1.08,1.3,7.93,1.51,8.8.37a2,2,0,0,0,.3-1.93s2.94,4.15,6.41.71,3.88-3.24,3.88-3.24,3.36-3.21,3.42-4.66,1-1.74,1-1.74,1.09-3,1-3.64.64-1.18.3-2.4-1.57-4.14-4.25-4.15A30.94,30.94,0,0,0,286.87,277.92Z"
        transform="translate(-231.58 -226.7)" />

      <line class="cls-12" x1="17.49" y1="53.6" x2="16.92" y2="61.43" />
      <line class="cls-12" x1="25.88" y1="56.7" x2="25.13" y2="66.27" />
      <line class="cls-12" x1="35.81" y1="58.27" x2="36.17" y2="70" />
      <line class="cls-12" x1="44.71" y1="58.6" x2="46.9" y2="70.24" />
      <line class="cls-12" x1="51.59" y1="56.64" x2="57.19" y2="67.72" />
      <line class="cls-12" x1="54.49" y1="53.26" x2="61.01" y2="61.76" />
      <line class="cls-12" x1="55.71" y1="51.41" x2="62.54" y2="57.68" />

      <path class="cls-13" d="M318.48,268" transform="translate(-231.58 -226.7)" />

      <path class="cls-14"
        d="M289.81,260.65a45.23,45.23,0,0,0-11.55-9.34,46,46,0,0,0-9.16-4,42.93,42.93,0,0,0-4.33-1.11c-.93-.19-1.86-.35-2.8-.48l-.13,0,.45-.71c.17-.28.35-.55.53-.81,4.41-6.49,10.75-10.82,15.59-9.73C285.37,236,291.16,249.2,289.81,260.65Z"
        transform="translate(-231.58 -226.7)" />

      <path class="cls-15"
        d="M289.81,260.65a20.37,20.37,0,0,1-4.5,11.07c-4.41,5.14-13.33,9.11-20.17,5.62-3.82-1.95-5.76-5.59-6.72-9.26a32.19,32.19,0,0,1-.69-10.91c0-.3.08-.61.13-.91s.07-.42.11-.62a26.28,26.28,0,0,1,1-3.78c.08-.25.17-.49.26-.74a2.77,2.77,0,0,1,.1-.26c.13-.34.27-.69.41-1a.3.3,0,0,1,0-.08q.24-.58.51-1.14a31.22,31.22,0,0,1,1.56-2.91l.13,0c.94.13,1.87.29,2.8.48a42.93,42.93,0,0,1,4.33,1.11,46,46,0,0,1,9.16,4A45.23,45.23,0,0,1,289.81,260.65Z"
        transform="translate(-231.58 -226.7)" />

      <path class="cls-16"
        d="M262.82,244.18c-.18.27-.36.53-.53.81l-.45.71a31.22,31.22,0,0,0-1.56,2.91q-.27.55-.51,1.14a.3.3,0,0,0,0,.08c-.14.34-.28.69-.41,1a2.77,2.77,0,0,0-.1.26,31.54,31.54,0,0,0-8.57-2.74,31.19,31.19,0,0,0-4.9-.43,11.74,11.74,0,0,0-4.6.71,5.19,5.19,0,0,0-2.17,1.85,5.88,5.88,0,0,0-.92,1.84,32.41,32.41,0,0,1,.52-3.61c1.28-5.79,5.6-15.38,12.26-15.57,3.24-.09,6,2.07,7.72,4a23.16,23.16,0,0,1,2.11,2.71A19.8,19.8,0,0,1,262.82,244.18Z"
        transform="translate(-231.58 -226.7)" />

      <path class="cls-17"
        d="M257.73,257.17a32.19,32.19,0,0,0,.69,10.91,11.91,11.91,0,0,1-2,1.34,13.1,13.1,0,0,1-12.51,0,10.73,10.73,0,0,1-4-4.16c-2.24-4.09-2.25-9.42-1.93-12.91a5.88,5.88,0,0,1,.92-1.84,5.19,5.19,0,0,1,2.17-1.85,11.74,11.74,0,0,1,4.6-.71,31.19,31.19,0,0,1,4.9.43,31.54,31.54,0,0,1,8.57,2.74c-.09.25-.18.49-.26.74a26.28,26.28,0,0,0-1,3.78c0,.2-.08.41-.11.62S257.77,256.87,257.73,257.17Z"
        transform="translate(-231.58 -226.7)" />

      <path class="cls-18"
        d="M278.26,251.31a8.71,8.71,0,1,1-17.38-1.11,9.6,9.6,0,0,1,1.09-4.48c.94.13,1.87.29,2.8.48a42.93,42.93,0,0,1,4.33,1.11A46,46,0,0,1,278.26,251.31Z"
        transform="translate(-231.58 -226.7)" />

      <path class="cls-19"
        d="M251.39,251.33a6.24,6.24,0,0,1-12.47,0,5.55,5.55,0,0,1,.06-.82,5.19,5.19,0,0,1,2.17-1.85,11.74,11.74,0,0,1,4.6-.71,31.19,31.19,0,0,1,4.9.43A6.23,6.23,0,0,1,251.39,251.33Z"
        transform="translate(-231.58 -226.7)" />

      <circle class="cls-20" cx="12.24" cy="24.03" r="2.25" />

      <path class="cls-21"
        d="M269.36,248.49a2.86,2.86,0,1,1-4.59-2.29,42.93,42.93,0,0,1,4.33,1.11A2.75,2.75,0,0,1,269.36,248.49Z"
        transform="translate(-231.58 -226.7)" />
    </svg>
